<svg viewBox="0 0 33 33" fill="none" xmlns="http://www.w3.org/2000/svg">
<path d="M25.1613 27.3892L28.1354 28.8471C29.0103 29.276 30.0702 28.8954 30.4084 27.9817C31.2777 25.633 31.9573 22.8511 32.1914 19.9892C32.4653 16.6405 32.1268 13.2166 30.8014 10.2538L30.7995 10.2546C30.7406 10.1269 30.6807 9.99964 30.6199 9.87275C30.1639 8.99517 29.3097 7.91883 28.0518 7.20666C26.6339 6.40393 24.6642 6.04063 22.0795 7.01188C21.5312 7.21792 20.9729 7.48419 20.4131 7.80181C21.1162 9.00189 21.62 10.6204 21.66 12.7546C21.6962 14.6835 21.3842 16.5101 20.9063 18.1375L25.4365 19.8247C26.5067 20.2234 27.2091 21.2825 26.996 22.4045C26.7391 23.7574 26.3079 25.0744 25.7157 26.3258C25.548 26.6802 25.3636 27.036 25.1613 27.3892Z" fill="#0473FF"/>
<path d="M9.80396 26.1106C10.1908 25.9938 10.5993 25.8248 11.028 25.5899C12.8437 24.5947 14.2169 22.9697 15.193 21.3757C15.8259 20.3422 16.3019 19.3054 16.6291 18.4296C16.7765 18.035 17.2128 17.8205 17.6075 17.9675L24.9394 20.6983C25.6773 20.9732 26.1424 21.7157 25.9767 22.4855C25.7577 23.5025 25.3887 24.6989 24.8193 25.9022C23.8868 27.8728 22.4338 29.8278 20.2595 31.0635C18.463 32.0846 16.6256 32.6113 14.908 32.6905C13.0365 32.3728 11.8088 31.558 11.0267 30.4698C10.1985 29.3176 9.83033 27.8035 9.80396 26.1106Z" fill="#0473FF"/>
<path d="M14.3472 0.45454C18.9711 -0.0882634 22.4068 0.937957 25.0147 2.78517C26.4004 3.76667 27.564 4.98836 28.551 6.3506L28.5403 6.34458C26.8571 5.39159 24.5798 5.01391 21.7307 6.08448C17.906 7.52167 13.7828 11.5716 11.5876 15.7017C10.1638 18.3805 8.75965 22.4882 8.81273 26.1137C8.83934 27.9309 9.23291 29.6728 10.2219 31.0488C10.5662 31.5278 10.9779 31.9558 11.462 32.3241C7.93985 31.4451 3.50808 28.9978 1.11971 23.3567C-0.96456 18.4339 0.0264568 12.9845 2.72689 8.60468C5.43146 4.21814 9.79903 0.988462 14.3472 0.45454Z" fill="#0473FF"/>
</svg>
