<svg viewBox="0 0 72 72" fill="none" xmlns="http://www.w3.org/2000/svg">
<circle cx="36" cy="36" r="36" fill="white"/>
<g transform="translate(8.9, 8.9)">
<path d="M27.0991 0C12.1331 0 0 12.1331 0 27.0991C0 42.0652 12.1331 54.1982 27.0991 54.1982C42.0652 54.1982 54.1982 42.0652 54.1982 27.0991C54.1982 12.1331 42.0652 0 27.0991 0ZM27.0991 49.2006C14.9123 49.2006 4.99764 39.2859 4.99764 27.0991C4.99764 14.9123 14.9107 4.99606 27.0991 4.99606C39.2875 4.99606 49.2006 14.9108 49.2006 27.0975C49.2006 39.2843 39.2859 49.199 27.0991 49.199V49.2006Z" fill="#1a1a2e"/>
<path d="M29.643 24.5547H24.5553V29.6424H29.643V24.5547Z" fill="#1a1a2e"/>
<path d="M29.643 16.5234H24.5553V21.6111H29.643V16.5234Z" fill="#1a1a2e"/>
<path d="M29.643 8.49219H24.5553V13.5799H29.643V8.49219Z" fill="#1a1a2e"/>
</g>
</svg>
